<svg xmlns="http://www.w3.org/2000/svg" width="60.023" height="60.005" viewBox="0 0 60.023 60.005"><defs><style>.a{fill:#fff;}</style></defs><path class="a" d="M172.627,35.656a6.3,6.3,0,0,0,.091-1.07A6.177,6.177,0,0,0,172.6,33.4a6.267,6.267,0,0,0-6.189-5.01h-10.11q.009-.172.009-.347a6.212,6.212,0,0,0-.982-3.354l.287-.908,1.575-4.985a6.215,6.215,0,0,0-5.067-8.024,6.247,6.247,0,0,0-5.273-5.106A6.242,6.242,0,0,0,141.43.541a6.07,6.07,0,0,0-.7-.041,6.2,6.2,0,0,0-4.38,1.854,6.315,6.315,0,0,0-2.167-.661,6.044,6.044,0,0,0-.7-.041,6.331,6.331,0,0,0-5.947,4.432l-3.047,9.64a6.225,6.225,0,0,0-2.154-.4A6.292,6.292,0,0,0,116,21.47V33.078a16.512,16.512,0,0,0,3.984,10.4,9.359,9.359,0,0,0,5.364,17.029c.006,0,.021-.005.027-.005a9.314,9.314,0,0,0,7.049-3.262A15.62,15.62,0,0,0,141.9,60.5h21.328a6.215,6.215,0,0,0,6.124-7.249,6.224,6.224,0,0,0,3.374-5.532,6.142,6.142,0,0,0-.093-1.03,6.187,6.187,0,0,0,0-11.027ZM151.273,14.462h0a2.265,2.265,0,0,1,.263.015,2.469,2.469,0,0,1,2.078,3.19l-1.434,4.54a6.122,6.122,0,0,0-3.893-.11l-1.368.422,1.973-6.246A2.553,2.553,0,0,1,151.273,14.462ZM119.75,33.078V21.519a2.535,2.535,0,0,1,2.544-2.447h.009a2.462,2.462,0,0,1,2.447,2.461c0,.005,0,.01,0,.015l.213,5.132,6.153-19.466A2.537,2.537,0,0,1,133.488,5.4a2.5,2.5,0,0,1,.265.015,2.469,2.469,0,0,1,2.086,3.19l-3.957,12.518a.82.82,0,0,0,1.565.494l4.914-15.558A2.537,2.537,0,0,1,140.73,4.25h0a2.253,2.253,0,0,1,.262.015,2.469,2.469,0,0,1,2.085,3.19l-4.447,14.129a.82.82,0,0,0,1.565.494l3.431-10.915A2.534,2.534,0,0,1,146,9.354h0a2.233,2.233,0,0,1,.261.015,2.469,2.469,0,0,1,2.085,3.19l-3.332,10.547-7.8,2.408a16.493,16.493,0,0,0-11.379,15.65V41.8c-.158-.007-.308-.047-.469-.047a9.281,9.281,0,0,0-1.793.182A12.577,12.577,0,0,1,119.75,33.078Zm5.625,23.672A5.625,5.625,0,1,1,131,51.125,5.628,5.628,0,0,1,125.375,56.75Zm44.414-13.125H153.383a.82.82,0,1,0,0,1.641h13.032a2.522,2.522,0,0,1,2.507,1.973,2.463,2.463,0,0,1-2.412,2.95l0,0H153.383a.82.82,0,1,0,0,1.641h9.751A2.522,2.522,0,0,1,165.64,53.8a2.463,2.463,0,0,1-2.412,2.95l0,0H141.9a12.11,12.11,0,0,1-7.649-2.743,9.129,9.129,0,0,0-4.656-11.2V41.161a12.71,12.71,0,0,1,8.735-12.067l11.045-3.409a2.506,2.506,0,0,1,.724-.106h.007a2.461,2.461,0,0,1,.728,4.812L146,32.141h20.415a2.522,2.522,0,0,1,2.507,1.973,2.463,2.463,0,0,1-2.412,2.95l0,0H153.383a.82.82,0,1,0,0,1.641H169.7a2.522,2.522,0,0,1,2.507,1.973,2.463,2.463,0,0,1-2.412,2.95Z" transform="translate(-115.989 -0.5)"/></svg>